<svg width="130" height="19" viewBox="0 0 335 48" version="1.1" xmlns="http://www.w3.org/2000/svg" xlink="http://www.w3.org/1999/xlink" class="site-logo__icon">
						<g id="Symbols" stroke="none" stroke-width="1" fill="none" fill-rule="evenodd">
							<g id="new_head" transform="translate(-473.000000, -6.000000)" fill="#0086CB">
								<g id="SEG_LOGO" transform="translate(473.000000, 6.000000)">
									<polygon id="Shape" points="97 1 138 1 138 13.2468354 128.953737 13.2468354 128.953737 8.76107595 115.74911 8.76107595 115.74911 38.2389241 122.314947 38.2389241 122.314947 46 97 46 97 38.2389241 103.565836 38.2389241 103.565836 8.76107595 97 8.76107595"></polygon>
									<path d="M289,38.2389241 L293.228209,38.2389241 L300.809826,24.8528481 C295.342314,22.5031646 292.717908,18.8006329 292.717908,13.6740506 C292.717908,6.83860759 297.675119,1 306.714739,1 L335,1 L335,8.76107595 L328.730586,8.76107595 L328.730586,38.2389241 L335,38.2389241 L335,46 L311.088748,46 L311.088748,38.2389241 L316.55626,38.2389241 L316.55626,26.3481013 L311.526149,26.3481013 L301.393027,46 L289,46 L289,38.2389241 L289,38.2389241 Z M316.55626,19.1566456 L316.55626,8.83227848 L310.797147,8.83227848 C306.568938,8.83227848 305.475436,12.0363924 305.475436,13.8876582 C305.475436,16.2373418 306.933439,19.1566456 312.03645,19.1566456 L316.55626,19.1566456 L316.55626,19.1566456 Z" id="Shape"></path>
									<polygon id="Shape" points="238 46 238 38.2389241 243.359014 38.2389241 243.359014 8.76107595 238 8.76107595 238 1 259.942989 1 259.942989 8.76107595 255.453005 8.76107595 255.453005 18.5870253 267.546995 18.5870253 267.546995 8.76107595 263.057011 8.76107595 263.057011 1 285 1 285 8.76107595 279.640986 8.76107595 279.640986 38.2389241 285 38.2389241 285 46 263.057011 46 263.057011 38.2389241 267.546995 38.2389241 267.546995 26.3481013 255.453005 26.3481013 255.453005 38.2389241 259.942989 38.2389241 259.942989 46"></polygon>
									<path d="M186.072197,38.2389241 L191.414747,38.2389241 L191.414747,8.76107595 L191.414747,8.76107595 L191.414747,7.33702532 L197.840246,1 L210.980031,1 L210.980031,8.76107595 L203.471582,8.76107595 L203.471582,38.2389241 L210.980031,38.2389241 L210.980031,46 L186,46 L186,38.2389241 L186.072197,38.2389241 Z M211.052227,1 L233,1 L233,8.76107595 L227.65745,8.76107595 L227.65745,38.2389241 L233,38.2389241 L233,46 L211.052227,46 L211.052227,38.2389241 L215.528418,38.2389241 L215.528418,8.76107595 L211.052227,8.76107595 L211.052227,1 L211.052227,1 Z" id="Shape"></path>
									<polygon id="Shape" points="51 46 51 38.2389241 56.4812834 38.2389241 56.4812834 8.76107595 51 8.76107595 51 1 92 1 92 15.3829114 83.0106952 15.3829114 83.0106952 8.76107595 68.6862745 8.76107595 68.6862745 19.1566456 80.2335116 19.1566456 80.2335116 26.846519 68.6862745 26.846519 68.6862745 38.2389241 83.0106952 38.2389241 83.0106952 31.7594937 92 31.7594937 92 46"></polygon>
									<path d="M163.499812,0 C150.509233,0 140,10.5093168 140,23.5 C140,36.4906832 150.509233,47 163.499812,47 C176.490392,47 186.999625,36.4906832 186.999625,23.5 C187.072606,10.5093168 176.490392,0 163.499812,0 Z M163.499812,36.4906832 C156.347696,36.4906832 150.582214,30.7251553 150.582214,23.5729814 C150.582214,16.4208075 156.347696,10.6552795 163.499812,10.6552795 C170.651929,10.6552795 176.417411,16.4208075 176.417411,23.5729814 C176.490392,30.6521739 170.651929,36.4906832 163.499812,36.4906832 Z" id="Shape"></path>
									<path d="M23.7582418,37.4177019 C16.5274725,37.4177019 10.6985871,31.6521739 10.6985871,24.5 C10.6985871,17.3478261 16.5274725,11.5822981 23.7582418,11.5822981 C28.9230769,11.5822981 33.3500785,14.5015528 35.4897959,18.8074534 L47,18.8074534 L47,1.2189441 L38.1459969,1.2189441 L38.1459969,5.81677019 C34.1616954,2.82453416 29.144427,1 23.7582418,1 C10.6248038,1 0,11.5093168 0,24.5 C0,37.4906832 10.6248038,48 23.7582418,48 C34.899529,48 44.1962323,40.4099379 46.7786499,30.265528 L35.4897959,30.265528 C33.2762951,34.4254658 28.8492936,37.4177019 23.7582418,37.4177019 Z" id="Shape" fill-rule="nonzero"></path>
								</g>
							</g>
						</g>
					</svg>